<svg width="200" height="200" viewBox="0 0 200 200" xmlns="http://www.w3.org/2000/svg">
  <defs>
    <linearGradient id="bgGradientV" x1="0%" y1="0%" x2="100%" y2="100%">
      <stop offset="0%" style="stop-color:#C0633E;stop-opacity:1" />
      <stop offset="100%" style="stop-color:#D4A041;stop-opacity:1" />
    </linearGradient>
  </defs>
  
  <!-- Icon -->
  <g transform="translate(100, 70)">
    <circle cx="0" cy="0" r="48" fill="url(#bgGradientV)"/>
    <g transform="translate(0, -8)">
      <path d="M0,-24 C-17,-24 -30,-11 -30,0 C-30,11 0,36 0,36 C0,36 30,11 30,0 C30,-11 17,-24 0,-24 Z" 
            fill="#5C7C58" stroke="#F4E4BC" stroke-width="4"/>
      <g transform="translate(0, -6)">
        <path d="M-12,0 L0,-10 L12,0 Z" fill="#F4E4BC"/>
        <rect x="-9" y="0" width="18" height="15" fill="#F4E4BC"/>
        <rect x="-3" y="6" width="6" height="9" fill="#C0633E"/>
        <circle cx="0" cy="3" r="2" fill="#D4A041"/>
      </g>
    </g>
  </g>
  
  <!-- Text -->
  <text x="100" y="160" text-anchor="middle" font-family="system-ui, -apple-system, BlinkMacSystemFont, 'Segoe UI', sans-serif" 
        font-size="28" font-weight="700" fill="#2D3748" letter-spacing="-1">LocalHub</text>
  <text x="100" y="180" text-anchor="middle" font-family="system-ui, -apple-system, BlinkMacSystemFont, 'Segoe UI', sans-serif" 
        font-size="10" font-weight="500" fill="#718096" letter-spacing="0.5">Belanja Lokal, Mudah Digital</text>
</svg>
